<svg width="40" height="40" viewBox="0 0 40 40" fill="none" xmlns="http://www.w3.org/2000/svg">
<g clip-path="url(#clip0_9_18)">
<path d="M20 0C8.96 0 0 8.96 0 20C0 31.04 8.96 40 20 40C31.04 40 40 31.04 40 20C40 8.96 31.04 0 20 0ZM20 33C18.34 33 17 31.66 17 30H23C23 31.66 21.66 33 20 33ZM30 28H10V26L12 24V18.78C12 14.54 14.06 10.94 18 10V9C18 7.86 18.86 7 20 7C21.14 7 22 7.86 22 9V10C25.94 10.94 28 14.56 28 18.78V24L30 26V28Z" fill="white"/>
</g>
<defs>
<clipPath id="clip0_9_18">
<rect width="40" height="40" fill="white"/>
</clipPath>
</defs>
</svg>
