<svg width="40" height="40" viewBox="0 0 40 40" fill="none" xmlns="http://www.w3.org/2000/svg">
<path d="M10.2778 3.33333H4.7222C3.95554 3.33333 3.33331 3.95555 3.33331 4.72222V10.2778C3.33331 11.0444 3.95554 11.6667 4.7222 11.6667H10.2778C11.0444 11.6667 11.6666 11.0444 11.6666 10.2778V4.72222C11.6666 3.95555 11.0444 3.33333 10.2778 3.33333Z" fill="white"/>
<path d="M10.2778 15.8333H4.7222C3.95554 15.8333 3.33331 16.4556 3.33331 17.2222V22.7778C3.33331 23.5444 3.95554 24.1667 4.7222 24.1667H10.2778C11.0444 24.1667 11.6666 23.5444 11.6666 22.7778V17.2222C11.6666 16.4556 11.0444 15.8333 10.2778 15.8333Z" fill="white"/>
<path d="M10.2778 28.3333H4.7222C3.95554 28.3333 3.33331 28.9556 3.33331 29.7222V35.2778C3.33331 36.0444 3.95554 36.6667 4.7222 36.6667H10.2778C11.0444 36.6667 11.6666 36.0444 11.6666 35.2778V29.7222C11.6666 28.9556 11.0444 28.3333 10.2778 28.3333Z" fill="white"/>
<path d="M22.7778 3.33333H17.2222C16.4555 3.33333 15.8333 3.95555 15.8333 4.72222V10.2778C15.8333 11.0444 16.4555 11.6667 17.2222 11.6667H22.7778C23.5444 11.6667 24.1666 11.0444 24.1666 10.2778V4.72222C24.1666 3.95555 23.5444 3.33333 22.7778 3.33333Z" fill="white"/>
<path d="M22.7778 15.8333H17.2222C16.4555 15.8333 15.8333 16.4556 15.8333 17.2222V22.7778C15.8333 23.5444 16.4555 24.1667 17.2222 24.1667H22.7778C23.5444 24.1667 24.1666 23.5444 24.1666 22.7778V17.2222C24.1666 16.4556 23.5444 15.8333 22.7778 15.8333Z" fill="white"/>
<path d="M22.7778 28.3333H17.2222C16.4555 28.3333 15.8333 28.9556 15.8333 29.7222V35.2778C15.8333 36.0444 16.4555 36.6667 17.2222 36.6667H22.7778C23.5444 36.6667 24.1666 36.0444 24.1666 35.2778V29.7222C24.1666 28.9556 23.5444 28.3333 22.7778 28.3333Z" fill="white"/>
<path d="M35.2778 3.33333H29.7222C28.9555 3.33333 28.3333 3.95555 28.3333 4.72222V10.2778C28.3333 11.0444 28.9555 11.6667 29.7222 11.6667H35.2778C36.0444 11.6667 36.6666 11.0444 36.6666 10.2778V4.72222C36.6666 3.95555 36.0444 3.33333 35.2778 3.33333Z" fill="white"/>
<path d="M35.2778 15.8333H29.7222C28.9555 15.8333 28.3333 16.4556 28.3333 17.2222V22.7778C28.3333 23.5444 28.9555 24.1667 29.7222 24.1667H35.2778C36.0444 24.1667 36.6666 23.5444 36.6666 22.7778V17.2222C36.6666 16.4556 36.0444 15.8333 35.2778 15.8333Z" fill="white"/>
<path d="M35.2778 28.3333H29.7222C28.9555 28.3333 28.3333 28.9556 28.3333 29.7222V35.2778C28.3333 36.0444 28.9555 36.6667 29.7222 36.6667H35.2778C36.0444 36.6667 36.6666 36.0444 36.6666 35.2778V29.7222C36.6666 28.9556 36.0444 28.3333 35.2778 28.3333Z" fill="white"/>
</svg>
