<svg width="34" height="31" viewBox="0 0 34 31" fill="none" xmlns="http://www.w3.org/2000/svg">
<path d="M22.7368 4.25004H32.3964L33.4091 0.500047H11.1366V21.125H27.841L28.8537 17.375H22.7368C22.4805 17.375 22.2728 17.1653 22.2728 16.9063V15.9688C22.2728 15.7098 22.4805 15.5 22.7368 15.5H29.3594L30.3721 11.75H22.7368C22.4805 11.75 22.2728 11.5403 22.2728 11.2813V10.3438C22.2728 10.0848 22.4805 9.87503 22.7368 9.87503H30.8779L31.8906 6.12504H22.7368C22.4805 6.12504 22.2728 5.91527 22.2728 5.65629V4.71879C22.2728 4.45981 22.4805 4.25004 22.7368 4.25004ZM9.21091 20.1295L7.71563 16.4229C7.55438 16.0239 7.14721 15.7789 6.71568 15.8217L4.10388 16.0807C3.10162 13.3303 3.08016 10.2342 4.10388 7.42523L6.71568 7.68422C7.14663 7.72699 7.55438 7.48148 7.71563 7.08304L9.21091 3.37641C9.38607 2.9434 9.2225 2.4477 8.82345 2.20044L6.54516 0.788328C5.714 0.27329 4.64561 0.47075 3.99948 1.20141C-1.36971 7.27172 -1.33665 16.4094 4.12128 22.441C4.69375 23.0738 5.81028 23.1723 6.53704 22.7223L8.82288 21.3055C9.2225 21.0582 9.38549 20.5631 9.21091 20.1295ZM27.841 23H11.1366C9.0862 23 7.42446 24.6787 7.42446 26.75V28.625C7.42446 29.6604 8.25562 30.5 9.28051 30.5H29.697C30.7219 30.5 31.553 29.6604 31.553 28.625V26.75C31.553 24.6787 29.8913 23 27.841 23ZM19.4888 28.625C18.4639 28.625 17.6327 27.7854 17.6327 26.75C17.6327 25.7147 18.4639 24.875 19.4888 24.875C20.5136 24.875 21.3448 25.7147 21.3448 26.75C21.3448 27.7854 20.5136 28.625 19.4888 28.625Z" fill="white"/>
</svg>
